<svg id="visual" viewBox="0 0 960 540" width="960" height="540" xmlns="http://www.w3.org/2000/svg" xmlns:xlink="http://www.w3.org/1999/xlink" version="1.1"><path d="M0 104L80 104L80 82L160 82L160 66L240 66L240 87L320 87L320 98L400 98L400 71L480 71L480 98L560 98L560 60L640 60L640 82L720 82L720 93L800 93L800 109L880 109L880 93L960 93L960 82L960 0L960 0L880 0L880 0L800 0L800 0L720 0L720 0L640 0L640 0L560 0L560 0L480 0L480 0L400 0L400 0L320 0L320 0L240 0L240 0L160 0L160 0L80 0L80 0L0 0Z" fill="#009473"></path><path d="M0 201L80 201L80 212L160 212L160 147L240 147L240 190L320 190L320 212L400 212L400 174L480 174L480 228L560 228L560 195L640 195L640 158L720 158L720 201L800 201L800 212L880 212L880 212L960 212L960 195L960 80L960 91L880 91L880 107L800 107L800 91L720 91L720 80L640 80L640 58L560 58L560 96L480 96L480 69L400 69L400 96L320 96L320 85L240 85L240 64L160 64L160 80L80 80L80 102L0 102Z" fill="#1c6550"></path><path d="M0 352L80 352L80 406L160 406L160 325L240 325L240 347L320 347L320 363L400 363L400 406L480 406L480 368L560 368L560 330L640 330L640 374L720 374L720 390L800 390L800 368L880 368L880 395L960 395L960 341L960 193L960 210L880 210L880 210L800 210L800 199L720 199L720 156L640 156L640 193L560 193L560 226L480 226L480 172L400 172L400 210L320 210L320 188L240 188L240 145L160 145L160 210L80 210L80 199L0 199Z" fill="#1c3a30"></path><path d="M0 541L80 541L80 541L160 541L160 541L240 541L240 541L320 541L320 541L400 541L400 541L480 541L480 541L560 541L560 541L640 541L640 541L720 541L720 541L800 541L800 541L880 541L880 541L960 541L960 541L960 339L960 393L880 393L880 366L800 366L800 388L720 388L720 372L640 372L640 328L560 328L560 366L480 366L480 404L400 404L400 361L320 361L320 345L240 345L240 323L160 323L160 404L80 404L80 350L0 350Z" fill="#121212"></path></svg>